<mxfile host="app.diagrams.net" agent="Mozilla/5.0 (Windows NT 10.0; Win64; x64) AppleWebKit/537.36 (KHTML, like Gecko) Chrome/136.0.0.0 Safari/537.36" version="27.0.5">
  <diagram name="Page-1" id="kPH_RRZQtiZ7yuQRnkNO">
    <mxGraphModel dx="443" dy="259" grid="1" gridSize="10" guides="1" tooltips="1" connect="1" arrows="1" fold="1" page="1" pageScale="1" pageWidth="850" pageHeight="1100" math="0" shadow="0">
      <root>
        <mxCell id="0" />
        <mxCell id="1" parent="0" />
        <mxCell id="T9UPzVXBncNjqvYtc4vn-1" value="Start" style="ellipse;whiteSpace=wrap;html=1;" parent="1" vertex="1">
          <mxGeometry x="377.5" y="20" width="70" height="30" as="geometry" />
        </mxCell>
        <mxCell id="T9UPzVXBncNjqvYtc4vn-2" value="Input Teacher rank, Preferences,Courses" style="shape=parallelogram;perimeter=parallelogramPerimeter;whiteSpace=wrap;html=1;fixedSize=1;" parent="1" vertex="1">
          <mxGeometry x="300" y="90" width="250" height="30" as="geometry" />
        </mxCell>
        <mxCell id="T9UPzVXBncNjqvYtc4vn-3" value="Sort Courses by Teacher&#39;s rank" style="rounded=0;whiteSpace=wrap;html=1;" parent="1" vertex="1">
          <mxGeometry x="300" y="280" width="250" height="30" as="geometry" />
        </mxCell>
        <mxCell id="T9UPzVXBncNjqvYtc4vn-4" value="Save Inputs to JSON files" style="rounded=0;whiteSpace=wrap;html=1;" parent="1" vertex="1">
          <mxGeometry x="300" y="150" width="250" height="30" as="geometry" />
        </mxCell>
        <mxCell id="T9UPzVXBncNjqvYtc4vn-5" value="Read Inputs form JSON files" style="shape=parallelogram;perimeter=parallelogramPerimeter;whiteSpace=wrap;html=1;fixedSize=1;" parent="1" vertex="1">
          <mxGeometry x="300" y="210" width="250" height="30" as="geometry" />
        </mxCell>
        <mxCell id="T9UPzVXBncNjqvYtc4vn-6" value="For each Course" style="rounded=0;whiteSpace=wrap;html=1;" parent="1" vertex="1">
          <mxGeometry x="310" y="340" width="250" height="30" as="geometry" />
        </mxCell>
        <mxCell id="T9UPzVXBncNjqvYtc4vn-7" value="Is Sessional?" style="rhombus;whiteSpace=wrap;html=1;" parent="1" vertex="1">
          <mxGeometry x="388.75" y="400" width="92.5" height="60" as="geometry" />
        </mxCell>
        <mxCell id="T9UPzVXBncNjqvYtc4vn-8" value="" style="endArrow=classic;html=1;rounded=0;exitX=0.5;exitY=1;exitDx=0;exitDy=0;entryX=0.453;entryY=0.053;entryDx=0;entryDy=0;entryPerimeter=0;" parent="1" source="T9UPzVXBncNjqvYtc4vn-1" target="T9UPzVXBncNjqvYtc4vn-2" edge="1">
          <mxGeometry width="50" height="50" relative="1" as="geometry">
            <mxPoint x="210" y="150" as="sourcePoint" />
            <mxPoint x="260" y="100" as="targetPoint" />
          </mxGeometry>
        </mxCell>
        <mxCell id="T9UPzVXBncNjqvYtc4vn-9" value="" style="endArrow=classic;html=1;rounded=0;exitX=0.469;exitY=1.04;exitDx=0;exitDy=0;entryX=0.469;entryY=0;entryDx=0;entryDy=0;entryPerimeter=0;exitPerimeter=0;" parent="1" source="T9UPzVXBncNjqvYtc4vn-2" target="T9UPzVXBncNjqvYtc4vn-4" edge="1">
          <mxGeometry width="50" height="50" relative="1" as="geometry">
            <mxPoint x="424" y="108" as="sourcePoint" />
            <mxPoint x="424" y="150" as="targetPoint" />
          </mxGeometry>
        </mxCell>
        <mxCell id="T9UPzVXBncNjqvYtc4vn-10" value="" style="endArrow=classic;html=1;rounded=0;exitX=0.5;exitY=1;exitDx=0;exitDy=0;entryX=0.5;entryY=0;entryDx=0;entryDy=0;" parent="1" source="T9UPzVXBncNjqvYtc4vn-4" target="T9UPzVXBncNjqvYtc4vn-5" edge="1">
          <mxGeometry width="50" height="50" relative="1" as="geometry">
            <mxPoint x="660" y="161" as="sourcePoint" />
            <mxPoint x="660" y="190" as="targetPoint" />
            <Array as="points" />
          </mxGeometry>
        </mxCell>
        <mxCell id="T9UPzVXBncNjqvYtc4vn-14" value="" style="endArrow=classic;html=1;rounded=0;exitX=0.5;exitY=1;exitDx=0;exitDy=0;entryX=0.5;entryY=0;entryDx=0;entryDy=0;" parent="1" source="T9UPzVXBncNjqvYtc4vn-5" target="T9UPzVXBncNjqvYtc4vn-3" edge="1">
          <mxGeometry width="50" height="50" relative="1" as="geometry">
            <mxPoint x="435" y="190" as="sourcePoint" />
            <mxPoint x="435" y="220" as="targetPoint" />
            <Array as="points" />
          </mxGeometry>
        </mxCell>
        <mxCell id="T9UPzVXBncNjqvYtc4vn-15" value="" style="endArrow=classic;html=1;rounded=0;exitX=0.5;exitY=1;exitDx=0;exitDy=0;" parent="1" source="T9UPzVXBncNjqvYtc4vn-3" edge="1">
          <mxGeometry width="50" height="50" relative="1" as="geometry">
            <mxPoint x="435" y="250" as="sourcePoint" />
            <mxPoint x="425" y="340" as="targetPoint" />
            <Array as="points" />
          </mxGeometry>
        </mxCell>
        <mxCell id="T9UPzVXBncNjqvYtc4vn-16" value="" style="endArrow=classic;html=1;rounded=0;exitX=0.5;exitY=1;exitDx=0;exitDy=0;entryX=0.5;entryY=0;entryDx=0;entryDy=0;" parent="1" source="T9UPzVXBncNjqvYtc4vn-6" target="T9UPzVXBncNjqvYtc4vn-7" edge="1">
          <mxGeometry width="50" height="50" relative="1" as="geometry">
            <mxPoint x="435" y="320" as="sourcePoint" />
            <mxPoint x="435" y="350" as="targetPoint" />
            <Array as="points" />
          </mxGeometry>
        </mxCell>
        <mxCell id="T9UPzVXBncNjqvYtc4vn-17" value="Try to Schedule Theory Course" style="rounded=0;whiteSpace=wrap;html=1;" parent="1" vertex="1">
          <mxGeometry x="490" y="480" width="180" height="30" as="geometry" />
        </mxCell>
        <mxCell id="T9UPzVXBncNjqvYtc4vn-18" value="Try to Schedule Sessional Course" style="rounded=0;whiteSpace=wrap;html=1;" parent="1" vertex="1">
          <mxGeometry x="187.5" y="480" width="190" height="30" as="geometry" />
        </mxCell>
        <mxCell id="T9UPzVXBncNjqvYtc4vn-19" value="" style="endArrow=classic;html=1;rounded=0;exitX=0;exitY=0.5;exitDx=0;exitDy=0;entryX=0.5;entryY=0;entryDx=0;entryDy=0;edgeStyle=orthogonalEdgeStyle;" parent="1" source="T9UPzVXBncNjqvYtc4vn-7" target="T9UPzVXBncNjqvYtc4vn-18" edge="1">
          <mxGeometry width="50" height="50" relative="1" as="geometry">
            <mxPoint x="400" y="600" as="sourcePoint" />
            <mxPoint x="450" y="550" as="targetPoint" />
          </mxGeometry>
        </mxCell>
        <mxCell id="T9UPzVXBncNjqvYtc4vn-20" value="Yes" style="text;html=1;align=center;verticalAlign=middle;resizable=0;points=[];autosize=1;strokeColor=none;fillColor=none;" parent="1" vertex="1">
          <mxGeometry x="310" y="410" width="40" height="30" as="geometry" />
        </mxCell>
        <mxCell id="T9UPzVXBncNjqvYtc4vn-21" value="" style="endArrow=classic;html=1;rounded=0;exitX=1;exitY=0.5;exitDx=0;exitDy=0;entryX=0.5;entryY=0;entryDx=0;entryDy=0;edgeStyle=orthogonalEdgeStyle;" parent="1" source="T9UPzVXBncNjqvYtc4vn-7" target="T9UPzVXBncNjqvYtc4vn-17" edge="1">
          <mxGeometry width="50" height="50" relative="1" as="geometry">
            <mxPoint x="400" y="600" as="sourcePoint" />
            <mxPoint x="450" y="550" as="targetPoint" />
          </mxGeometry>
        </mxCell>
        <mxCell id="T9UPzVXBncNjqvYtc4vn-22" value="No" style="text;html=1;align=center;verticalAlign=middle;resizable=0;points=[];autosize=1;strokeColor=none;fillColor=none;" parent="1" vertex="1">
          <mxGeometry x="510" y="410" width="40" height="30" as="geometry" />
        </mxCell>
        <mxCell id="T9UPzVXBncNjqvYtc4vn-24" value="Is Conflict?" style="rhombus;whiteSpace=wrap;html=1;" parent="1" vertex="1">
          <mxGeometry x="510" y="545" width="95" height="40" as="geometry" />
        </mxCell>
        <mxCell id="T9UPzVXBncNjqvYtc4vn-25" value="" style="endArrow=classic;html=1;rounded=0;exitX=0.373;exitY=1.053;exitDx=0;exitDy=0;entryX=0.5;entryY=0;entryDx=0;entryDy=0;exitPerimeter=0;" parent="1" source="T9UPzVXBncNjqvYtc4vn-17" target="T9UPzVXBncNjqvYtc4vn-24" edge="1">
          <mxGeometry width="50" height="50" relative="1" as="geometry">
            <mxPoint x="435" y="320" as="sourcePoint" />
            <mxPoint x="435" y="350" as="targetPoint" />
            <Array as="points" />
          </mxGeometry>
        </mxCell>
        <mxCell id="T9UPzVXBncNjqvYtc4vn-26" value="" style="endArrow=classic;html=1;rounded=0;exitX=1;exitY=0.5;exitDx=0;exitDy=0;entryX=0;entryY=0.5;entryDx=0;entryDy=0;" parent="1" source="T9UPzVXBncNjqvYtc4vn-24" target="T9UPzVXBncNjqvYtc4vn-27" edge="1">
          <mxGeometry width="50" height="50" relative="1" as="geometry">
            <mxPoint x="567" y="522" as="sourcePoint" />
            <mxPoint x="630" y="565" as="targetPoint" />
            <Array as="points" />
          </mxGeometry>
        </mxCell>
        <mxCell id="T9UPzVXBncNjqvYtc4vn-27" value="Schedule done for this course" style="rounded=0;whiteSpace=wrap;html=1;" parent="1" vertex="1">
          <mxGeometry x="650" y="550" width="130" height="30" as="geometry" />
        </mxCell>
        <mxCell id="T9UPzVXBncNjqvYtc4vn-30" value="No" style="text;html=1;align=center;verticalAlign=middle;resizable=0;points=[];autosize=1;strokeColor=none;fillColor=none;" parent="1" vertex="1">
          <mxGeometry x="600" y="535" width="40" height="30" as="geometry" />
        </mxCell>
        <mxCell id="T9UPzVXBncNjqvYtc4vn-31" value="" style="endArrow=classic;html=1;rounded=0;exitX=0.5;exitY=1;exitDx=0;exitDy=0;entryX=0.44;entryY=0.053;entryDx=0;entryDy=0;entryPerimeter=0;" parent="1" source="T9UPzVXBncNjqvYtc4vn-24" target="T9UPzVXBncNjqvYtc4vn-32" edge="1">
          <mxGeometry width="50" height="50" relative="1" as="geometry">
            <mxPoint x="567" y="522" as="sourcePoint" />
            <mxPoint x="568" y="550" as="targetPoint" />
            <Array as="points" />
          </mxGeometry>
        </mxCell>
        <mxCell id="T9UPzVXBncNjqvYtc4vn-32" value="Shift Existing Course" style="rounded=0;whiteSpace=wrap;html=1;" parent="1" vertex="1">
          <mxGeometry x="500" y="630" width="130" height="30" as="geometry" />
        </mxCell>
        <mxCell id="T9UPzVXBncNjqvYtc4vn-35" value="Yes" style="text;html=1;align=center;verticalAlign=middle;resizable=0;points=[];autosize=1;strokeColor=none;fillColor=none;" parent="1" vertex="1">
          <mxGeometry x="550" y="588" width="40" height="30" as="geometry" />
        </mxCell>
        <mxCell id="T9UPzVXBncNjqvYtc4vn-36" value="Possible to Shift?" style="rhombus;whiteSpace=wrap;html=1;" parent="1" vertex="1">
          <mxGeometry x="495" y="700" width="135" height="60" as="geometry" />
        </mxCell>
        <mxCell id="T9UPzVXBncNjqvYtc4vn-37" value="" style="endArrow=classic;html=1;rounded=0;entryX=0.5;entryY=0;entryDx=0;entryDy=0;" parent="1" target="T9UPzVXBncNjqvYtc4vn-36" edge="1">
          <mxGeometry width="50" height="50" relative="1" as="geometry">
            <mxPoint x="560" y="660" as="sourcePoint" />
            <mxPoint x="568" y="555" as="targetPoint" />
            <Array as="points" />
          </mxGeometry>
        </mxCell>
        <mxCell id="T9UPzVXBncNjqvYtc4vn-39" value="" style="endArrow=classic;html=1;rounded=0;edgeStyle=orthogonalEdgeStyle;" parent="1" edge="1">
          <mxGeometry width="50" height="50" relative="1" as="geometry">
            <mxPoint x="500" y="730" as="sourcePoint" />
            <mxPoint x="500" y="645" as="targetPoint" />
            <Array as="points">
              <mxPoint x="447.5" y="730" />
              <mxPoint x="447.5" y="645" />
            </Array>
          </mxGeometry>
        </mxCell>
        <mxCell id="T9UPzVXBncNjqvYtc4vn-40" value="For 2 Times" style="edgeLabel;html=1;align=center;verticalAlign=middle;resizable=0;points=[];" parent="T9UPzVXBncNjqvYtc4vn-39" vertex="1" connectable="0">
          <mxGeometry x="-0.0291" y="2" relative="1" as="geometry">
            <mxPoint as="offset" />
          </mxGeometry>
        </mxCell>
        <mxCell id="T9UPzVXBncNjqvYtc4vn-41" value="No" style="text;html=1;align=center;verticalAlign=middle;resizable=0;points=[];autosize=1;strokeColor=none;fillColor=none;" parent="1" vertex="1">
          <mxGeometry x="455" y="725" width="40" height="30" as="geometry" />
        </mxCell>
        <mxCell id="T9UPzVXBncNjqvYtc4vn-42" value="Yes" style="text;html=1;align=center;verticalAlign=middle;resizable=0;points=[];autosize=1;strokeColor=none;fillColor=none;" parent="1" vertex="1">
          <mxGeometry x="630" y="730" width="40" height="30" as="geometry" />
        </mxCell>
        <mxCell id="T9UPzVXBncNjqvYtc4vn-43" value="" style="endArrow=classic;html=1;rounded=0;exitX=1;exitY=0.5;exitDx=0;exitDy=0;entryX=0.25;entryY=1;entryDx=0;entryDy=0;edgeStyle=orthogonalEdgeStyle;" parent="1" source="T9UPzVXBncNjqvYtc4vn-36" target="T9UPzVXBncNjqvYtc4vn-27" edge="1">
          <mxGeometry width="50" height="50" relative="1" as="geometry">
            <mxPoint x="400" y="780" as="sourcePoint" />
            <mxPoint x="450" y="730" as="targetPoint" />
          </mxGeometry>
        </mxCell>
        <mxCell id="T9UPzVXBncNjqvYtc4vn-44" value="Is Conflict?" style="rhombus;whiteSpace=wrap;html=1;" parent="1" vertex="1">
          <mxGeometry x="225" y="535" width="95" height="40" as="geometry" />
        </mxCell>
        <mxCell id="T9UPzVXBncNjqvYtc4vn-45" value="" style="endArrow=classic;html=1;rounded=0;entryX=1;entryY=0.5;entryDx=0;entryDy=0;exitX=0;exitY=0.5;exitDx=0;exitDy=0;" parent="1" source="T9UPzVXBncNjqvYtc4vn-44" target="T9UPzVXBncNjqvYtc4vn-46" edge="1">
          <mxGeometry width="50" height="50" relative="1" as="geometry">
            <mxPoint x="200" y="560" as="sourcePoint" />
            <mxPoint x="320" y="560" as="targetPoint" />
            <Array as="points" />
          </mxGeometry>
        </mxCell>
        <mxCell id="T9UPzVXBncNjqvYtc4vn-46" value="Schedule done for this course" style="rounded=0;whiteSpace=wrap;html=1;" parent="1" vertex="1">
          <mxGeometry x="55" y="540" width="130" height="30" as="geometry" />
        </mxCell>
        <mxCell id="T9UPzVXBncNjqvYtc4vn-47" value="No" style="text;html=1;align=center;verticalAlign=middle;resizable=0;points=[];autosize=1;strokeColor=none;fillColor=none;" parent="1" vertex="1">
          <mxGeometry x="185" y="530" width="40" height="30" as="geometry" />
        </mxCell>
        <mxCell id="T9UPzVXBncNjqvYtc4vn-48" value="" style="endArrow=classic;html=1;rounded=0;exitX=0.5;exitY=1;exitDx=0;exitDy=0;" parent="1" source="T9UPzVXBncNjqvYtc4vn-44" edge="1">
          <mxGeometry width="50" height="50" relative="1" as="geometry">
            <mxPoint x="257" y="517" as="sourcePoint" />
            <mxPoint x="273" y="620" as="targetPoint" />
            <Array as="points" />
          </mxGeometry>
        </mxCell>
        <mxCell id="T9UPzVXBncNjqvYtc4vn-49" value="Shift Existing Course" style="rounded=0;whiteSpace=wrap;html=1;" parent="1" vertex="1">
          <mxGeometry x="190" y="618" width="130" height="30" as="geometry" />
        </mxCell>
        <mxCell id="T9UPzVXBncNjqvYtc4vn-50" value="Yes" style="text;html=1;align=center;verticalAlign=middle;resizable=0;points=[];autosize=1;strokeColor=none;fillColor=none;" parent="1" vertex="1">
          <mxGeometry x="232.5" y="580" width="40" height="30" as="geometry" />
        </mxCell>
        <mxCell id="T9UPzVXBncNjqvYtc4vn-51" value="Possible to Shift?" style="rhombus;whiteSpace=wrap;html=1;" parent="1" vertex="1">
          <mxGeometry x="185" y="695" width="135" height="60" as="geometry" />
        </mxCell>
        <mxCell id="T9UPzVXBncNjqvYtc4vn-52" value="" style="endArrow=classic;html=1;rounded=0;entryX=0.5;entryY=0;entryDx=0;entryDy=0;" parent="1" target="T9UPzVXBncNjqvYtc4vn-51" edge="1">
          <mxGeometry width="50" height="50" relative="1" as="geometry">
            <mxPoint x="253" y="650" as="sourcePoint" />
            <mxPoint x="258" y="550" as="targetPoint" />
            <Array as="points" />
          </mxGeometry>
        </mxCell>
        <mxCell id="T9UPzVXBncNjqvYtc4vn-53" value="" style="endArrow=classic;html=1;rounded=0;exitX=1;exitY=0.5;exitDx=0;exitDy=0;entryX=1;entryY=0.5;entryDx=0;entryDy=0;edgeStyle=orthogonalEdgeStyle;" parent="1" source="T9UPzVXBncNjqvYtc4vn-51" target="T9UPzVXBncNjqvYtc4vn-49" edge="1">
          <mxGeometry width="50" height="50" relative="1" as="geometry">
            <mxPoint x="300" y="720" as="sourcePoint" />
            <mxPoint x="300" y="628" as="targetPoint" />
            <Array as="points">
              <mxPoint x="320" y="726" />
              <mxPoint x="350" y="726" />
              <mxPoint x="350" y="633" />
            </Array>
          </mxGeometry>
        </mxCell>
        <mxCell id="T9UPzVXBncNjqvYtc4vn-58" value="For 2 Times" style="edgeLabel;html=1;align=center;verticalAlign=middle;resizable=0;points=[];" parent="T9UPzVXBncNjqvYtc4vn-53" vertex="1" connectable="0">
          <mxGeometry x="-0.0753" y="2" relative="1" as="geometry">
            <mxPoint as="offset" />
          </mxGeometry>
        </mxCell>
        <mxCell id="T9UPzVXBncNjqvYtc4vn-55" value="No" style="text;html=1;align=center;verticalAlign=middle;resizable=0;points=[];autosize=1;strokeColor=none;fillColor=none;" parent="1" vertex="1">
          <mxGeometry x="320" y="720" width="40" height="30" as="geometry" />
        </mxCell>
        <mxCell id="T9UPzVXBncNjqvYtc4vn-56" value="Yes" style="text;html=1;align=center;verticalAlign=middle;resizable=0;points=[];autosize=1;strokeColor=none;fillColor=none;" parent="1" vertex="1">
          <mxGeometry x="145" y="720" width="40" height="30" as="geometry" />
        </mxCell>
        <mxCell id="T9UPzVXBncNjqvYtc4vn-57" value="" style="endArrow=classic;html=1;rounded=0;exitX=0;exitY=0.5;exitDx=0;exitDy=0;edgeStyle=orthogonalEdgeStyle;entryX=0.595;entryY=0.947;entryDx=0;entryDy=0;entryPerimeter=0;" parent="1" source="T9UPzVXBncNjqvYtc4vn-51" target="T9UPzVXBncNjqvYtc4vn-46" edge="1">
          <mxGeometry width="50" height="50" relative="1" as="geometry">
            <mxPoint x="185" y="727.5" as="sourcePoint" />
            <mxPoint x="113" y="570" as="targetPoint" />
          </mxGeometry>
        </mxCell>
        <mxCell id="T9UPzVXBncNjqvYtc4vn-59" value="Schedule All Courses?" style="rhombus;whiteSpace=wrap;html=1;" parent="1" vertex="1">
          <mxGeometry x="342.5" y="820" width="147.5" height="80" as="geometry" />
        </mxCell>
        <mxCell id="T9UPzVXBncNjqvYtc4vn-60" value="" style="endArrow=classic;html=1;rounded=0;exitX=0.25;exitY=1;exitDx=0;exitDy=0;edgeStyle=orthogonalEdgeStyle;entryX=0.5;entryY=0;entryDx=0;entryDy=0;" parent="1" source="T9UPzVXBncNjqvYtc4vn-46" target="T9UPzVXBncNjqvYtc4vn-59" edge="1">
          <mxGeometry width="50" height="50" relative="1" as="geometry">
            <mxPoint x="30" y="780" as="sourcePoint" />
            <mxPoint x="272.5" y="1030" as="targetPoint" />
            <Array as="points">
              <mxPoint x="88" y="790" />
              <mxPoint x="416" y="790" />
            </Array>
          </mxGeometry>
        </mxCell>
        <mxCell id="T9UPzVXBncNjqvYtc4vn-61" value="" style="endArrow=classic;html=1;rounded=0;entryX=1;entryY=0.5;entryDx=0;entryDy=0;exitX=0.572;exitY=1.067;exitDx=0;exitDy=0;exitPerimeter=0;edgeStyle=orthogonalEdgeStyle;" parent="1" source="T9UPzVXBncNjqvYtc4vn-27" target="T9UPzVXBncNjqvYtc4vn-59" edge="1">
          <mxGeometry width="50" height="50" relative="1" as="geometry">
            <mxPoint x="729.3599999999999" y="605.19" as="sourcePoint" />
            <mxPoint x="495" y="884.8" as="targetPoint" />
            <Array as="points">
              <mxPoint x="724" y="860" />
            </Array>
          </mxGeometry>
        </mxCell>
        <mxCell id="T9UPzVXBncNjqvYtc4vn-62" value="" style="endArrow=classic;html=1;rounded=0;entryX=0;entryY=0.5;entryDx=0;entryDy=0;exitX=0;exitY=0.5;exitDx=0;exitDy=0;edgeStyle=orthogonalEdgeStyle;" parent="1" source="T9UPzVXBncNjqvYtc4vn-59" target="T9UPzVXBncNjqvYtc4vn-6" edge="1">
          <mxGeometry width="50" height="50" relative="1" as="geometry">
            <mxPoint x="360" y="880" as="sourcePoint" />
            <mxPoint x="307.9" y="365" as="targetPoint" />
            <Array as="points">
              <mxPoint x="40" y="860" />
              <mxPoint x="40" y="355" />
            </Array>
          </mxGeometry>
        </mxCell>
        <mxCell id="T9UPzVXBncNjqvYtc4vn-63" value="No" style="text;html=1;align=center;verticalAlign=middle;resizable=0;points=[];autosize=1;strokeColor=none;fillColor=none;" parent="1" vertex="1">
          <mxGeometry x="262.5" y="830" width="40" height="30" as="geometry" />
        </mxCell>
        <mxCell id="T9UPzVXBncNjqvYtc4vn-64" value="Generate Routine in Excel format" style="rounded=0;whiteSpace=wrap;html=1;" parent="1" vertex="1">
          <mxGeometry x="320" y="950" width="181.25" height="30" as="geometry" />
        </mxCell>
        <mxCell id="T9UPzVXBncNjqvYtc4vn-65" value="" style="endArrow=classic;html=1;rounded=0;exitX=0.5;exitY=1;exitDx=0;exitDy=0;" parent="1" source="T9UPzVXBncNjqvYtc4vn-59" edge="1">
          <mxGeometry width="50" height="50" relative="1" as="geometry">
            <mxPoint x="320" y="910" as="sourcePoint" />
            <mxPoint x="416" y="949" as="targetPoint" />
          </mxGeometry>
        </mxCell>
        <mxCell id="T9UPzVXBncNjqvYtc4vn-66" value="Yes" style="text;html=1;align=center;verticalAlign=middle;resizable=0;points=[];autosize=1;strokeColor=none;fillColor=none;" parent="1" vertex="1">
          <mxGeometry x="410" y="908" width="40" height="30" as="geometry" />
        </mxCell>
        <mxCell id="T9UPzVXBncNjqvYtc4vn-67" value="End" style="ellipse;whiteSpace=wrap;html=1;" parent="1" vertex="1">
          <mxGeometry x="385" y="1020" width="70" height="30" as="geometry" />
        </mxCell>
        <mxCell id="T9UPzVXBncNjqvYtc4vn-68" value="" style="endArrow=classic;html=1;rounded=0;entryX=0.5;entryY=0;entryDx=0;entryDy=0;" parent="1" target="T9UPzVXBncNjqvYtc4vn-67" edge="1">
          <mxGeometry width="50" height="50" relative="1" as="geometry">
            <mxPoint x="420" y="980" as="sourcePoint" />
            <mxPoint x="370" y="1020" as="targetPoint" />
          </mxGeometry>
        </mxCell>
        <mxCell id="qYML8aMwZC8F9ogt2aSx-1" value="" style="endArrow=classic;html=1;rounded=0;entryX=0.5;entryY=0;entryDx=0;entryDy=0;exitX=0.442;exitY=1.009;exitDx=0;exitDy=0;exitPerimeter=0;" edge="1" parent="1" source="T9UPzVXBncNjqvYtc4vn-18" target="T9UPzVXBncNjqvYtc4vn-44">
          <mxGeometry width="50" height="50" relative="1" as="geometry">
            <mxPoint x="273" y="511" as="sourcePoint" />
            <mxPoint x="500" y="570" as="targetPoint" />
          </mxGeometry>
        </mxCell>
      </root>
    </mxGraphModel>
  </diagram>
</mxfile>
